# xmcd
#
# Track frame offsets:
# 150
# 15904
# 34415
# 56223
# 75424
# 99695
# 115901
# 142944
# 171833
# 192463
# 207639
# 227087
# 245221
# 256204
# 271557
# 290514
# 307422
# 329151
#
# Disc length: 4618 seconds
#
#
# Revision: 0
# Processed by: cddbd v1.5.2PL0 Copyright (c) Steve Scherf et al.
# Submitted via: Nero 7, 2, 3, 3 Nero Sucks
#
DISCID=12120812
DTITLE=Hoaglin - Various Artist
DYEAR=2007
DGENRE=Country
TTITLE0=Various Artist
TTITLE1=Various Artist
TTITLE2=Various Artist
TTITLE3=Various Artist
TTITLE4=Various Artist
TTITLE5=Various Artist
TTITLE6=Various Artist
TTITLE7=Various Artist
TTITLE8=Various Artist
TTITLE9=Various Artist
TTITLE10=Various Artist
TTITLE11=Various Artist
TTITLE12=Various Artist
TTITLE13=Various Artist
TTITLE14=Various Artist
TTITLE15=Various Artist
TTITLE16=Various Artist
TTITLE17=Various Artist
EXTD=
EXTT0=Nero Sucks
EXTT1=Nero Sucks
EXTT2=Nero Sucks
EXTT3=Nero Sucks
EXTT4=Nero Sucks
EXTT5=Nero Sucks
EXTT6=Nero Sucks
EXTT7=Nero Sucks
EXTT8=Nero Sucks
EXTT9=Nero Sucks
EXTT10=Nero Sucks
EXTT11=Nero Sucks
EXTT12=Nero Sucks
EXTT13=Nero Sucks
EXTT14=Nero Sucks
EXTT15=Nero Sucks
EXTT16=Nero Sucks
EXTT17=Nero Sucks
PLAYORDER=
